# xmcd
#
# Track frame offsets:
#	150
#	14778
#	27829
#	42492
#	55104
#	67426
#	84280
#	98779
#	113547
#	128002
#
# Disc length: 1861 seconds
#
# Revision: 1
# Processed by: cddbd v1.5.2PL0 Copyright (c) Steve Scherf et al.
# Submitted via: audiograbber 1.83.01
#
DISCID=8207430a
DTITLE=Mel McDaniel - Oklahoma Wind
DYEAR=1984
DGENRE=Country
TTITLE0=I Call It Love
TTITLE1=Come Early Morning
TTITLE2=Callin' Me Back
TTITLE3=Cheatin' Only Cheatin'
TTITLE4=Where'd That Woman Go
TTITLE5=Gunfighter's Song
TTITLE6=Most of All I Remember You
TTITLE7=All Around the Watertank
TTITLE8=Born to the Night
TTITLE9=You've Got Another Think Comin'
EXTD=
EXTT0=
EXTT1=
EXTT2=
EXTT3=
EXTT4=
EXTT5=
EXTT6=
EXTT7=
EXTT8=
EXTT9=
PLAYORDER=
